<svg width="460" height="86" viewBox="0 0 460 86" fill="none" xmlns="http://www.w3.org/2000/svg">
<path d="M59.2 46.2C52.4 46.2 46.8999 51.7 46.8999 58.5C46.8999 65.3 52.4 70.8 59.2 70.8C66 70.8 71.5 65.3 71.5 58.5C71.5 51.7 66 46.2 59.2 46.2Z" fill="#BC9B65"/>
<path d="M275.4 68.1001C281.6 68.1001 285.3 66.3001 287.4 64.6001V82.8999C287.4 84.4999 288.7 85.7 290.2 85.7C291.8 85.7 293 84.3999 293 82.8999V31C293 27.5 290.6 24.4001 287.1 23.6001C283.1 22.6001 278.7 22.1001 275.3 22.1001C261.8 22.1001 255.5 27.1 255.5 45C255.6 62.7 261.9 68.1001 275.4 68.1001ZM275.4 27.3C278.3 27.3 281.2 27.6001 283.9 28.1001C286 28.5001 287.5 30.4 287.5 32.5V56.5C287.5 60.5 282 62.6001 275.5 62.6001C265.3 62.6001 261.9 59.0999 261.9 44.8999C261.9 30.1999 265.2 27.3 275.4 27.3Z" fill="#33342F"/>
<path d="M248.1 22.8999C246.5 22.8999 245.3 24.2 245.3 25.7V63.8C245.3 65.4 246.6 66.6001 248.1 66.6001C249.6 66.6001 250.9 65.3 250.9 63.8V25.7C250.9 24.2 249.6 22.8999 248.1 22.8999Z" fill="#33342F"/>
<path d="M123.2 9.6001C125 9.6001 127.3 9.79995 129.4 10.2C130.7 10.4 132 9.6999 132.3 8.3999C132.7 6.9999 131.8 5.4001 130.4 5.1001C128.1 4.6001 125.6 4.3999 123.2 4.3999C116 4.3999 109 6.0999 109 18.8999V23H103.9C102.5 23 101.3 24.2001 101.3 25.6001C101.3 27.0001 102.5 28.2 103.9 28.2H109V63.8999C109 65.4999 110.3 66.7 111.8 66.7C113.4 66.7 114.6 65.3999 114.6 63.8999V28.2H127.6C129 28.2 130.2 27.0001 130.2 25.6001C130.2 24.2001 129 23 127.6 23H114.6V18.8999C114.6 10.2999 119.1 9.6001 123.2 9.6001Z" fill="#33342F"/>
<path d="M148.8 20.5C143.7 20.5 139.1 21.4 135.7 22.3C134.9 22.5 134.4 23.2999 134.8 24.3999L135.2 25.7C135.6 26.9 136.8 27.5 138 27.2C141.2 26.3 145.1 25.8999 148.4 25.8999C158.2 25.8999 161.1 27.9999 161.3 37.8999C161.3 38.3999 160.8 38.8 160.4 38.7C156.4 37.9 153.1 37.5 148.9 37.5C139.1 37.5 131.6 39.5 131.6 52C131.6 63.3 136.8 66.7 149.3 66.7C152.9 66.7 157.3 66.2 161.2 65.2C164.6 64.4 167 61.3 167 57.8V37.6001C166.9 24.2001 161.5 20.5 148.8 20.5ZM161.3 56.3C161.3 58.3 159.9 60.1001 157.9 60.6001C155.3 61.2001 152.4 61.6001 149.5 61.6001C140.3 61.6001 137.8 60.3001 137.8 51.6001C137.8 43.6001 140.7 42.6001 149.5 42.6001C153 42.6001 156.4 42.8 159.3 43.3C160.4 43.5 161.2 44.5001 161.2 45.6001V56.3H161.3Z" fill="#33342F"/>
<path d="M191.8 20.5C185.6 20.5 181.9 22.3 179.8 24V5.69995C179.8 4.09995 178.5 2.8999 177 2.8999C175.4 2.8999 174.2 4.19995 174.2 5.69995V57.6001C174.2 61.1001 176.6 64.2 180.1 65C184.1 66 188.5 66.5 191.9 66.5C205.4 66.5 211.7 61.5001 211.7 43.6001C211.6 25.9001 205.4 20.5 191.8 20.5ZM191.8 61.3C188.9 61.3 186 61 183.3 60.5C181.2 60.1 179.7 58.2001 179.7 56.1001V32.1001C179.7 28.1001 185.2 26 191.7 26C201.9 26 205.3 29.5 205.3 43.7C205.4 58.4 202 61.3 191.8 61.3Z" fill="#33342F"/>
<path d="M238.9 23.3001C232 21.2001 220.2 20.5001 217.2 28.8001C216.8 29.8001 216.6 31 216.6 32.2V63.9C216.6 65.4 217.8 66.7 219.4 66.7C220.9 66.7 222.2 65.5 222.2 63.9V33.3001C222.2 30.2001 224.5 27.7001 227.5 27.3001C227.9 27.2001 228.3 27.2 228.8 27.2C231.5 27.3 234.1 27.7 236.7 28.4C238.3 28.8 239.2 28.2001 239.6 27.8001C239.8 27.5001 239.9 27.3001 239.9 27.3001C239.9 27.3001 239.9 27.3 240.4 25.7C240.9 24 239.8 23.6001 238.9 23.3001Z" fill="#33342F"/>
<path d="M358.4 68.2C356.9 68.2 355.6 66.9999 355.6 65.3999V33.7C355.6 29.1 358.9 25.1 363.4 24.2C366.8 23.5 370.2 23.1001 373.1 23.1001C385.6 23.1001 390.2 27.4001 390.2 43.1001V65.3C390.2 66.8 389 68.1001 387.4 68.1001C385.8 68.1001 384.6 66.9 384.6 65.3V44.2C384.6 31.1 381.9 28.3999 372.1 28.3999C370.1 28.3999 368.3 28.5 366.6 28.7C363.6 29.1 361.3 31.6 361.3 34.7V65.3C361.2 67 359.9 68.2 358.4 68.2Z" fill="#33342F"/>
<path d="M387.3 68.2C385.8 68.2 384.5 66.9999 384.5 65.3999V33.7C384.5 29.1 387.8 25.1 392.3 24.2C395.7 23.5 399.1 23.1001 402 23.1001C414.5 23.1001 419.1 27.4001 419.1 43.1001V65.3C419.1 66.8 417.9 68.1001 416.3 68.1001C414.7 68.1001 413.5 66.9 413.5 65.3V44.2C413.5 31.1 410.8 28.3999 401 28.3999C399 28.3999 397.2 28.5 395.5 28.7C392.5 29.1 390.2 31.6 390.2 34.7V65.3C390.1 67 388.9 68.2 387.3 68.2Z" fill="#33342F"/>
<path d="M347.5 62.6999C347.5 62.6999 346.9 61 344.3 61.6C341 62.4 337.6 62.8 334.2 62.8C330.8 62.8 327.7 62.6999 324.9 60.9999C322.1 59.2999 321.4 54.1999 321.4 52.6999C321.4 52.0999 321.4 37.9 321.4 37.3C321.4 35.7 322 30.6999 324.9 28.9999C327.7 27.2999 330.8 27.1999 334.2 27.1999C337.6 27.1999 341 27.5998 344.3 28.3998C346.9 28.9998 347.5 27.3 347.5 27.3C347.5 27.3 347.5 27.2999 348 25.6999C348.5 23.9999 347.4 23.6998 346.5 23.3998C340.8 21.6998 335.3 21.6999 334.1 21.6999C332.9 21.6999 324.7 21.2999 320.1 24.9999C315.5 28.6999 315.5 36.4999 315.5 38.6999C315.5 39.3999 315.5 50.2999 315.5 50.9999C315.5 53.1999 315.5 60.9999 320.1 64.6999C324.7 68.3999 332.9 67.9999 334.1 67.9999C335.3 67.9999 340.8 68 346.5 66.3C347.4 66 348.5 65.6999 348 63.9999C347.5 62.6999 347.5 62.6999 347.5 62.6999Z" fill="#33342F"/>
<path d="M459.1 51.1001C457.8 44.7001 452.6 42.1 446.4 41.7C442.3 41.4 435.6 43.1 432.3 40.2C429.7 38 430.7 30.6 433.4 29C436.2 27.3 439.3 27.2 442.8 27.2C446.2 27.2 449.6 27.5999 452.9 28.3999C455.5 28.9999 456.1 27.3 456.1 27.3C456.1 27.3 456.1 27.3 456.6 25.7C457.1 24 456 23.6999 455.1 23.3999C449.4 21.6999 443.9 21.7 442.7 21.7C438.4 21.7 433.6 21.8 429.8 24.2C425.3 27.1 424.1 32.6001 424.8 37.6001C425.6 42.9001 429.8 46 434.8 47C437.7 47.5 440.6 47.4 443.5 47.5C446 47.6 449.3 47.4 451.3 49.2C454 51.5 453.2 57.2 451.2 59.8C448.8 62.8 444.3 62.8 440.8 62.8C437.4 62.8 434 62.4001 430.7 61.6001C428.1 61.0001 427.5 62.7 427.5 62.7C427.5 62.7 427.5 62.7 427 64.3C426.5 66 427.6 66.3001 428.5 66.6001C434.2 68.3001 439.7 68.3 440.9 68.3C445.3 68.3 450.3 68.1001 454.1 65.6001C458.7 62.4001 460.1 56.3001 459.1 51.1001Z" fill="#33342F"/>
<path d="M48.4999 35.5C48.4999 35.5 48.4999 33.7 48.4999 32.7C48.4999 28.4 51.9999 24.8999 56.2999 24.8999C57.2999 24.8999 59.0999 24.8999 59.0999 24.8999C65.8999 24.8999 71.3998 19.4001 71.3998 12.6001C71.3998 5.8001 65.8999 0.300049 59.0999 0.300049C52.2999 0.300049 46.7999 5.8001 46.7999 12.6001C46.7999 12.6001 46.7999 14.3999 46.7999 15.3999C46.7999 19.6999 43.2999 23.2 38.9999 23.2C37.9999 23.2 34.1999 23.2 33.2999 23.2C28.9999 23.2 25.4999 19.6999 25.4999 15.3999C25.4999 14.5999 25.4999 13.3 25.4999 12.8C25.4999 12.7 25.4999 12.7001 25.4999 12.6001C25.4999 5.8001 19.9999 0.300049 13.1999 0.300049C6.39989 0.300049 0.899902 5.8001 0.899902 12.6001C0.899902 19.4001 6.39989 24.8999 13.1999 24.8999C13.1999 24.8999 13.1999 24.8999 13.2999 24.8999C13.6999 24.8999 15.1999 24.8999 15.9999 24.8999C20.2999 24.8999 23.7999 28.4 23.7999 32.7C23.7999 33.6 23.7999 37.4999 23.7999 38.3999C23.7999 42.6999 20.2999 46.2 15.9999 46.2C14.9999 46.2 13.1999 46.2 13.1999 46.2C6.39989 46.2 0.899902 51.7 0.899902 58.5C0.899902 65.3 6.39989 70.8 13.1999 70.8C19.9999 70.8 25.4999 65.3 25.4999 58.5C25.4999 58.5 25.4999 56.7 25.4999 55.7C25.4999 51.4 28.9999 47.8999 33.2999 47.8999C34.2999 47.8999 36.0999 47.8999 36.0999 47.8999C42.9999 47.7999 48.4999 42.3 48.4999 35.5Z" fill="#BC9B65"/>
</svg>
