<svg xmlns="http://www.w3.org/2000/svg" xmlns:xlink="http://www.w3.org/1999/xlink" viewBox="0 0 374.51 89.37"><defs><clipPath id="clip-path"><rect width="96.51" height="89.37" fill="none"/></clipPath><clipPath id="clip-path-2" transform="translate(0 0)"><rect width="385.08" height="71.91" fill="none"/></clipPath><mask id="mask" x="0" y="0" width="97.3" height="90.16" maskUnits="userSpaceOnUse"><g transform="translate(0 0)"><g clip-path="url(#clip-path)"><rect width="97.3" height="90.16"/><g style="isolation:isolate"><path d="M36,0h0A36,36,0,1,1,0,36,36,36,0,0,1,36,0" fill="#fff"/></g></g></g></mask><clipPath id="clip-path-4" transform="translate(0 0)"><rect width="96.51" height="89.37" fill="none"/></clipPath></defs><g id="Lager_2" data-name="Lager 2"><g id="Lager_1-2" data-name="Lager 1"><g clip-path="url(#clip-path-2)"><g clip-path="url(#clip-path-2)"><path d="M113.38,16.72a3.56,3.56,0,0,1-4.62,3.4c-2.73-.85-5.28-1-6.91,0-1.17.71-1.55,2-1.55,3.78v1.77h5.59a3.59,3.59,0,0,1,0,7.18H100.3V52.72a3.81,3.81,0,0,1-7.62,0V32.83H90.61a3.59,3.59,0,0,1,0-7.18h2.07V23a10.14,10.14,0,0,1,4.69-9.08c3.75-2.34,8.88-2.35,13.69-.55a3.58,3.58,0,0,1,2.32,3.34" transform="translate(0 0)" fill="#073b5b"/><path d="M141.73,28.84V52.7a3.81,3.81,0,1,1-7.61,0v-.05a14.18,14.18,0,0,1-10.28,4.5c-8.26,0-14.92-7.32-14.92-16.34s6.66-16.41,14.92-16.41a14.18,14.18,0,0,1,10.28,4.5v-.06a3.81,3.81,0,0,1,7.61,0m-7.42,12A8.89,8.89,0,1,0,125.42,50a9,9,0,0,0,8.89-9.19" transform="translate(0 0)" fill="#073b5b"/><path d="M177.08,40.81c0,9-6.65,16.34-14.91,16.34a14.18,14.18,0,0,1-10.28-4.5v.05a3.81,3.81,0,1,1-7.62,0V15.9a3.81,3.81,0,1,1,7.62,0v13a14.18,14.18,0,0,1,10.28-4.5c8.26,0,14.91,7.31,14.91,16.41m-7.61,0A8.89,8.89,0,1,0,160.58,50a9,9,0,0,0,8.89-9.19" transform="translate(0 0)" fill="#073b5b"/><path d="M198.13,28.29a3.91,3.91,0,0,1-3.31,3.86c-4.29.65-8.22,3.89-8.22,10.2V52.7a3.81,3.81,0,1,1-7.61,0V28.84a3.81,3.81,0,0,1,7.54-.73c2.24-2.23,5.05-3.72,7.7-3.72a3.9,3.9,0,0,1,3.9,3.9" transform="translate(0 0)" fill="#073b5b"/><path d="M200.69,16.72a4.45,4.45,0,1,1,4.44,4.51,4.47,4.47,0,0,1-4.44-4.51m.64,36V28.84a3.81,3.81,0,0,1,7.61,0V52.7a3.81,3.81,0,1,1-7.61,0" transform="translate(0 0)" fill="#073b5b"/><path d="M244.29,28.84V67a3.81,3.81,0,0,1-7.62,0V52.65a14.17,14.17,0,0,1-10.28,4.5c-8.26,0-14.91-7.32-14.91-16.41s6.65-16.34,14.91-16.34a14.2,14.2,0,0,1,10.28,4.49v-.05a3.81,3.81,0,0,1,7.62,0m-7.43,11.92A8.89,8.89,0,1,0,228,50a9,9,0,0,0,8.88-9.22" transform="translate(0 0)" fill="#073b5b"/><path d="M282.39,47.61a3.59,3.59,0,0,1,4.53,5.58,16.35,16.35,0,1,1,0-24.89,3.59,3.59,0,0,1-4.53,5.57,10.07,10.07,0,0,0-6.15-2.3,9.17,9.17,0,0,0,0,18.34,10.07,10.07,0,0,0,6.15-2.3" transform="translate(0 0)" fill="#073b5b"/><path d="M331.36,24.38c8.09,0,14,6.05,14,13.49v14.8a3.81,3.81,0,1,1-7.61,0V39.79a7.94,7.94,0,1,0-15.87,0v12.9a3.81,3.81,0,0,1-7.61,0V39.8a7.94,7.94,0,1,0-15.87,0V52.7a3.81,3.81,0,0,1-7.62,0V28.84a3.81,3.81,0,0,1,7.61-.3,13.76,13.76,0,0,1,20.83,1.34,16.1,16.1,0,0,1,12.15-5.5Z" transform="translate(0 0)" fill="#073b5b"/><path d="M349.92,54.56a3.45,3.45,0,0,1,2.81-6.3,19.06,19.06,0,0,0,7.69,1.59c3.36,0,5.84-.83,5.84-2.41,0-1.78-3.11-2.35-5.33-2.73-5.4-1-12.57-3.11-12.57-10.22,0-7.3,7.55-10.15,13-10.15a27.74,27.74,0,0,1,10.17,2.35,3.46,3.46,0,0,1-1.34,6.65,3.3,3.3,0,0,1-1.22-.22,22.7,22.7,0,0,0-7.54-1.61c-3.18,0-4.83,1.2-4.83,2.73,0,1.9,2.79,2.54,4.32,2.85,6.91,1.46,13.58,3.18,13.58,9.9,0,7.62-8.57,10.09-13.9,10.09a27.25,27.25,0,0,1-10.69-2.52" transform="translate(0 0)" fill="#073b5b"/><g mask="url(#mask)"><g clip-path="url(#clip-path-4)"><rect width="71.91" height="71.91" fill="#073b5b"/><path d="M11.47,68.15,17.9,15.82A13.18,13.18,0,0,1,32.59,4.34l52.34,6.42a13.19,13.19,0,0,1,11.48,14.7L90,77.79A13.17,13.17,0,0,1,75.29,89.27L23,82.85a13.2,13.2,0,0,1-11.48-14.7" transform="translate(0 0)" fill="#bd9b66"/><path d="M33.05,49.7c.69,5.63,7.34,9.45,14.85,8.53s13-6.24,12.35-11.87" transform="translate(0 0)" fill="#6e5630"/><path d="M30.36,33.46h0c1.13-.14,2.19,1,2.38,2.47s-.58,2.83-1.71,3-2.19-1-2.37-2.47.58-2.83,1.7-3" transform="translate(0 0)" fill="#6e5630"/><path d="M57.57,30.12h0c1.12-.14,2.18,1,2.37,2.47s-.58,2.83-1.71,3-2.19-1-2.37-2.47.58-2.83,1.71-3" transform="translate(0 0)" fill="#6e5630"/></g></g></g></g></g></g></svg>