<svg xmlns="http://www.w3.org/2000/svg" viewBox="0 0 171.35 68.41"><g id="Lager_2" data-name="Lager 2"><g id="Lager_1-2" data-name="Lager 1"><path d="M46.3,18.16a14.22,14.22,0,0,0-4.69-3.08A15.48,15.48,0,0,0,35.69,14a18.55,18.55,0,0,0-6.37,1,15.73,15.73,0,0,0-4.88,2.75,12.93,12.93,0,0,0-3.25,4,14.45,14.45,0,0,0-1.52,4.93h9.45a4.7,4.7,0,0,1,1-2.06,7.25,7.25,0,0,1,1.76-1.39,5.85,5.85,0,0,1,3-.66,6,6,0,0,1,4.48,1.73A6.65,6.65,0,0,1,41,29.17a51.69,51.69,0,0,0-10.81.95,21.53,21.53,0,0,0-6.95,2.63,9.77,9.77,0,0,0-3.73,4,11.82,11.82,0,0,0-1.11,5.13,9.94,9.94,0,0,0,3.28,7.69q3.29,3,9.45,3A14.84,14.84,0,0,0,35.61,52,15.87,15.87,0,0,0,39,50.54a18.05,18.05,0,0,0,2.88-2l1.64,3.7h7V28.76a15.43,15.43,0,0,0-1.11-5.91A14.22,14.22,0,0,0,46.3,18.16ZM41,37.39A7.49,7.49,0,0,1,38.78,43a8.25,8.25,0,0,1-6,2.18,5,5,0,0,1-3.54-1.27,3.79,3.79,0,0,1-1.39-2.84,4.89,4.89,0,0,1,.49-2.22,3.93,3.93,0,0,1,1.93-1.68,14,14,0,0,1,4-1.07A48.26,48.26,0,0,1,41,35.75Z" fill="#fff"/><path d="M14.46.12A11.81,11.81,0,0,0,12.74,0,13.59,13.59,0,0,0,7.6,1a11.13,11.13,0,0,0-4,2.75A12.75,12.75,0,0,0,1,8,15.4,15.4,0,0,0,0,13.56V52.19H9.45V26.71h4.89l.07-.62a19.49,19.49,0,0,1,2.05-6.62,14.56,14.56,0,0,1,.8-1.38H9.45V14a5.27,5.27,0,0,1,1.44-3.9,5.27,5.27,0,0,1,3.9-1.44,6.07,6.07,0,0,1,1.07.08l.74.17.66.16V.82c-.39-.11-.82-.24-1.32-.41S15,.21,14.46.12Z" fill="#fff"/><path d="M91.37,25.56a19.74,19.74,0,0,0-3.86-6.12,17.38,17.38,0,0,0-5.63-4A16.26,16.26,0,0,0,75.14,14a12.63,12.63,0,0,0-4.15.62,25.29,25.29,0,0,0-3.08,1.27,15.81,15.81,0,0,0-2.63,1.81V.41H55.83V52.19h7l1.65-3.7a14.09,14.09,0,0,0,2.87,2A16.09,16.09,0,0,0,70.7,52a14.93,14.93,0,0,0,4.44.62,16.26,16.26,0,0,0,6.74-1.44,17.38,17.38,0,0,0,5.63-4A19.74,19.74,0,0,0,91.37,41a20.3,20.3,0,0,0,1.44-7.73A20.25,20.25,0,0,0,91.37,25.56ZM80.65,40.76a9.51,9.51,0,0,1-13.48,0,10.26,10.26,0,0,1-2.71-7.48,10.25,10.25,0,0,1,2.71-7.47,9.51,9.51,0,0,1,13.48,0,10.25,10.25,0,0,1,2.71,7.47A10.26,10.26,0,0,1,80.65,40.76Z" fill="#fff"/><path d="M135.81,41a19.67,19.67,0,0,0,3.86,6.12,17.38,17.38,0,0,0,5.63,4A16.26,16.26,0,0,0,152,52.6a12.63,12.63,0,0,0,4.15-.62,27.77,27.77,0,0,0,3.08-1.27,15.81,15.81,0,0,0,2.63-1.81V66.16h9.45V14.38h-7l-1.65,3.7a14.09,14.09,0,0,0-2.87-2,16.33,16.33,0,0,0-3.37-1.44A14.93,14.93,0,0,0,152,14a16.26,16.26,0,0,0-6.74,1.44,17.38,17.38,0,0,0-5.63,4,19.56,19.56,0,0,0-3.86,6.12,20.25,20.25,0,0,0-1.44,7.72A20.3,20.3,0,0,0,135.81,41Zm10.72-15.2a9.51,9.51,0,0,1,13.48,0,10.25,10.25,0,0,1,2.71,7.47A10.26,10.26,0,0,1,160,40.76a9.51,9.51,0,0,1-13.48,0,10.26,10.26,0,0,1-2.71-7.48A10.25,10.25,0,0,1,146.53,25.81Z" fill="#fff"/><path d="M105.31,18.28l-1.64-3.7h-7v37.8h9.45v-21a8.23,8.23,0,0,1,2.17-6,7.47,7.47,0,0,1,5.63-2.26,9,9,0,0,1,1.39.1V14.58A14.21,14.21,0,0,0,105.31,18.28Z" fill="#fff"/><rect x="120.22" y="14.58" width="9.45" height="37.8" fill="#fff"/><path d="M125.15,57.73a5.34,5.34,0,0,0,0,10.68,5.47,5.47,0,0,0,5.34-5.34,5.47,5.47,0,0,0-5.34-5.34Z" fill="#fff"/></g></g></svg>