<svg xmlns="http://www.w3.org/2000/svg" viewBox="0 0 329 115"><g id="Lager_2" data-name="Lager 2"><g id="Lager_1-2" data-name="Lager 1"><rect width="329" height="115"/><path d="M102.1,41.1a18.44,18.44,0,0,0-9.7-2.7,18.7,18.7,0,0,0-9.7,2.7,20.44,20.44,0,0,0-7.2,7.4,19.49,19.49,0,0,0-2.7,10,19.76,19.76,0,0,0,2.7,10,20.44,20.44,0,0,0,7.2,7.4,18.44,18.44,0,0,0,9.7,2.7,18.7,18.7,0,0,0,9.7-2.7,20.44,20.44,0,0,0,7.2-7.4,19.49,19.49,0,0,0,2.7-10,19.76,19.76,0,0,0-2.7-10,20.44,20.44,0,0,0-7.2-7.4m-2.9,25a9,9,0,0,1-13.4,0,10.87,10.87,0,0,1-2.7-7.6,10.87,10.87,0,0,1,2.7-7.6,9,9,0,0,1,13.4,0,10.87,10.87,0,0,1,2.7,7.6,12.1,12.1,0,0,1-2.7,7.6" fill="#fff"/><path d="M31.9,82.7a5.7,5.7,0,1,0,4,9.7,5.78,5.78,0,0,0,1.7-4,5.61,5.61,0,0,0-1.7-4,5.78,5.78,0,0,0-4-1.7" fill="#fff"/><path d="M144.6,40.4a15.27,15.27,0,0,0-8.1-2.1,12.18,12.18,0,0,0-6.4,1.6,15.85,15.85,0,0,0-4,3.1h-.4l-1.6-3.7h-7.6V77.5h10.2V55.9a8.45,8.45,0,0,1,2.1-5.8,7.38,7.38,0,0,1,10.8.1,8.46,8.46,0,0,1,2.2,5.7V77.5H152V55a18.58,18.58,0,0,0-1.9-8.7,14.28,14.28,0,0,0-5.5-5.9" fill="#fff"/><path d="M176.1,47.8a8.46,8.46,0,0,1,4,1,10.54,10.54,0,0,1,2.7,2.4,9.63,9.63,0,0,1,1.3,2.4h10.2a20.82,20.82,0,0,0-3.2-7.4,18.83,18.83,0,0,0-6.4-5.8,17,17,0,0,0-8.6-2.2,18.7,18.7,0,0,0-9.7,2.7,20.44,20.44,0,0,0-7.2,7.4,19.49,19.49,0,0,0-2.7,10,19.76,19.76,0,0,0,2.7,10,20.44,20.44,0,0,0,7.2,7.4,18.44,18.44,0,0,0,9.7,2.7,17,17,0,0,0,8.6-2.2,19.8,19.8,0,0,0,6.4-5.8,20.09,20.09,0,0,0,3.2-7.4H184.1a7.18,7.18,0,0,1-1.3,2.4,9.1,9.1,0,0,1-2.7,2.4,7.44,7.44,0,0,1-4,1,8.6,8.6,0,0,1-6.7-3,10.87,10.87,0,0,1-2.7-7.6,10.87,10.87,0,0,1,2.7-7.6,9,9,0,0,1,6.7-2.8" fill="#fff"/><path d="M227.6,40.9a18.84,18.84,0,0,0-19.1.2,20.44,20.44,0,0,0-7.2,7.4,19.49,19.49,0,0,0-2.7,10,20.8,20.8,0,0,0,2.6,10.1,19.15,19.15,0,0,0,7.1,7.3,18.79,18.79,0,0,0,9.8,2.7,17.2,17.2,0,0,0,7.8-1.8,18.47,18.47,0,0,0,6-4.6,21.59,21.59,0,0,0,3.6-5.5H224.8a8.69,8.69,0,0,1-6.8,2.8,9.08,9.08,0,0,1-5.9-1.9,10,10,0,0,1-3.3-5.4h27.5a16,16,0,0,0,.4-4.3,19.43,19.43,0,0,0-2.5-9.9,15.65,15.65,0,0,0-6.6-7.1M209,54.8a9.54,9.54,0,0,1,3.4-5.4,9.07,9.07,0,0,1,5.8-2,9.2,9.2,0,0,1,5.7,2,10,10,0,0,1,3.3,5.4Z" fill="#fff"/><path d="M270.7,41a16.09,16.09,0,0,0-8.7-2.6,13,13,0,0,0-6.7,1.6,13.19,13.19,0,0,0-4.1,3.1h-.4l-1.6-3.7h-7.6V91.1h10.2V74.3h.4A6,6,0,0,0,254,76a22.46,22.46,0,0,0,3.5,1.8,13.89,13.89,0,0,0,4.6.8,16.09,16.09,0,0,0,8.7-2.6,18.9,18.9,0,0,0,6.5-7.2,21.91,21.91,0,0,0,2.4-10.2,21.62,21.62,0,0,0-2.4-10.2,18.41,18.41,0,0,0-6.6-7.4m-2.5,22.9a9.43,9.43,0,0,1-3.3,3.8,8.1,8.1,0,0,1-8.8,0,11.22,11.22,0,0,1-3.3-3.8,13.2,13.2,0,0,1,0-11,9.43,9.43,0,0,1,3.3-3.8,8.1,8.1,0,0,1,8.8,0,11.22,11.22,0,0,1,3.3,3.8,12.34,12.34,0,0,1,1.2,5.5,9.94,9.94,0,0,1-1.2,5.5" fill="#fff"/><path d="M295.7,67.6a5.39,5.39,0,0,1-1.4-4V48.4h4.8a26,26,0,0,1,2.5-8.2,4.05,4.05,0,0,0,.5-.9h-7.9V29.7H284V64.5q0,6.45,3.6,10.2a12.28,12.28,0,0,0,9.3,3.7,17.18,17.18,0,0,0,5.2-.8V68.4a6.69,6.69,0,0,1-2.6.5,5.17,5.17,0,0,1-3.8-1.3" fill="#fff"/><rect x="26.8" y="39.4" width="10.2" height="38.2" fill="#fff"/><polygon points="74.7 39.4 63.1 39.4 51.6 55.1 51.6 25.2 41.5 25.2 41.5 77.6 51.6 77.6 51.6 60.5 63.8 77.6 76.3 77.6 61.1 57.4 74.7 39.4" fill="#fff"/></g></g></svg>