<?xml version="1.0" standalone="no"?>
<!DOCTYPE svg PUBLIC "-//W3C//DTD SVG 20010904//EN"
 "http://www.w3.org/TR/2001/REC-SVG-20010904/DTD/svg10.dtd">
<svg version="1.0" xmlns="http://www.w3.org/2000/svg"
 width="1200.000000pt" height="1200.000000pt" viewBox="0 0 1200.000000 1200.000000"
 preserveAspectRatio="xMidYMid meet">
<metadata>
Created by potrace 1.14, written by Peter Selinger 2001-2017
</metadata>
<g transform="translate(0.000000,1200.000000) scale(0.100000,-0.100000)"
fill="#000000" stroke="none">
<path d="M5625 11990 c-1897 -128 -3583 -1108 -4628 -2690 -774 -1174 -1108
-2580 -947 -3992 126 -1098 562 -2156 1249 -3023 168 -213 270 -326 499 -554
192 -191 227 -222 233 -205 4 10 224 1790 489 3954 264 2164 492 3990 506
4058 114 570 451 1065 949 1395 125 83 363 198 508 245 245 80 529 120 767
109 69 -4 1076 -124 2238 -267 1163 -143 2123 -260 2135 -260 39 0 -301 239
-578 406 -71 43 -233 130 -360 194 -677 342 -1356 538 -2135 615 -184 19 -738
27 -925 15z"/>
<path d="M9533 6964 c-91 -34 -172 -133 -209 -259 -24 -81 -24 -230 0 -309 42
-142 134 -264 233 -309 71 -32 172 -30 239 5 239 125 274 550 62 774 -29 31
-75 68 -103 82 -63 31 -161 39 -222 16z"/>
<path d="M4985 6396 c-200 -93 -273 -415 -150 -663 122 -246 379 -303 531
-116 122 150 136 391 34 593 -88 175 -268 255 -415 186z"/>
<path d="M7763 3991 c-1233 -152 -2245 -280 -2249 -284 -10 -9 15 -130 48
-237 175 -557 738 -999 1465 -1151 273 -57 609 -74 890 -45 1063 110 1925 743
2107 1546 24 103 37 267 30 363 -6 80 -8 87 -28 86 -12 -1 -1030 -126 -2263
-278z"/>
</g>
</svg>
