<?xml version="1.0" standalone="no"?>
<!DOCTYPE svg PUBLIC "-//W3C//DTD SVG 20010904//EN"
 "http://www.w3.org/TR/2001/REC-SVG-20010904/DTD/svg10.dtd">
<svg version="1.0" xmlns="http://www.w3.org/2000/svg"
 width="700.000000pt" height="700.000000pt" viewBox="0 0 700.000000 700.000000"
 preserveAspectRatio="xMidYMid meet">
<metadata>
Created by potrace 1.14, written by Peter Selinger 2001-2017
</metadata>
<g transform="translate(0.000000,700.000000) scale(0.100000,-0.100000)"
fill="#000000" stroke="none">
<path d="M0 3500 l0 -3500 3500 0 3500 0 0 3500 0 3500 -3500 0 -3500 0 0
-3500z m2895 1862 l60 -20 3 -276 c1 -152 -1 -276 -5 -276 -5 0 -24 5 -43 10
-19 6 -74 11 -121 11 -110 1 -186 -29 -255 -103 -82 -88 -89 -114 -89 -333 l0
-190 257 -3 256 -2 -48 -93 c-55 -106 -103 -249 -125 -373 -8 -48 -15 -91 -15
-95 0 -5 -74 -9 -165 -9 l-165 0 0 -855 0 -855 -315 0 -315 0 3 1388 3 1387
23 80 c84 294 275 506 531 590 114 38 162 44 315 41 115 -3 164 -9 210 -24z
m1570 -937 c181 -46 332 -133 456 -261 107 -112 174 -227 222 -379 45 -143 47
-190 47 -1061 l0 -824 -236 2 -236 3 -51 115 c-28 63 -52 117 -53 119 -2 2
-34 -20 -71 -48 -86 -65 -242 -142 -358 -178 -85 -26 -100 -27 -295 -27 -180
-1 -216 2 -295 22 -372 94 -590 403 -545 773 23 195 102 350 233 460 76 64
247 153 372 193 194 62 507 106 761 106 113 0 136 3 141 16 11 29 -16 147 -48
212 -41 83 -94 136 -177 175 -59 28 -79 32 -170 35 -77 3 -116 0 -155 -13
-100 -33 -192 -114 -228 -201 l-23 -54 -313 0 c-291 0 -313 1 -313 18 0 81 82
298 149 396 142 207 392 361 663 410 127 23 143 24 288 21 103 -3 159 -10 235
-30z"/>
<path d="M4173 2984 c-304 -33 -453 -113 -483 -261 -34 -160 46 -288 210 -337
72 -22 171 -20 264 4 252 64 396 261 396 543 l0 67 -132 -1 c-73 -1 -188 -7
-255 -15z"/>
</g>
</svg>
