<?xml version="1.0" standalone="no"?>
<!DOCTYPE svg PUBLIC "-//W3C//DTD SVG 20010904//EN"
 "http://www.w3.org/TR/2001/REC-SVG-20010904/DTD/svg10.dtd">
<svg version="1.0" xmlns="http://www.w3.org/2000/svg"
 width="1400.000000pt" height="1400.000000pt" viewBox="0 0 1400.000000 1400.000000"
 preserveAspectRatio="xMidYMid meet">
<metadata>
Created by potrace 1.11, written by Peter Selinger 2001-2013
</metadata>
<g transform="translate(0.000000,1400.000000) scale(0.100000,-0.100000)"
fill="#000000" stroke="none">
<path d="M4195 10983 c-422 -62 -794 -315 -1008 -688 -38 -66 -119 -239 -116
-248 1 -1 -6 -26 -15 -56 -48 -163 -65 -416 -39 -591 31 -207 107 -403 225
-579 205 -303 518 -511 882 -585 101 -21 188 -27 476 -31 129 -1 249 -5 265
-9 203 -45 344 -118 469 -242 126 -126 203 -261 246 -432 19 -76 22 -139 23
-512 0 -396 -4 -462 -34 -572 -19 -67 -84 -216 -99 -228 -4 -3 -13 -16 -19
-28 -50 -95 -231 -250 -361 -309 -151 -69 -241 -82 -555 -84 -315 -1 -399 -11
-577 -70 -150 -49 -286 -121 -411 -216 -70 -53 -198 -178 -242 -238 -16 -22
-32 -42 -35 -45 -17 -16 -87 -132 -125 -207 -57 -115 -105 -257 -120 -358 -2
-11 -7 -38 -12 -60 -14 -73 -8 -363 11 -458 69 -355 272 -672 561 -878 157
-112 363 -200 545 -234 159 -30 404 -29 545 3 263 59 497 181 676 353 59 57
89 90 164 180 29 36 108 167 135 224 110 237 137 378 139 752 2 287 12 373 56
490 54 143 154 282 275 380 61 50 240 148 285 157 11 2 38 9 60 14 77 21 132
24 405 27 151 2 286 6 300 9 13 3 42 8 65 11 212 31 488 157 656 301 52 45
171 167 199 204 14 19 34 45 46 59 98 123 210 387 238 566 2 17 8 50 12 75 4
25 8 167 9 315 1 149 5 284 8 300 4 17 9 46 12 65 13 81 67 207 132 309 40 63
191 216 222 226 12 3 21 10 21 14 0 16 186 100 265 120 111 27 146 30 430 32
192 1 276 6 360 20 61 11 117 22 125 25 8 4 22 8 30 9 60 9 266 106 365 170
102 67 132 92 230 190 186 187 326 444 374 685 6 30 13 69 17 85 3 17 8 100 9
185 3 142 -9 253 -39 375 -27 109 -86 250 -149 358 -205 346 -546 585 -947
664 -124 24 -406 23 -520 -2 -14 -3 -38 -8 -54 -11 -16 -2 -32 -7 -36 -9 -3
-2 -17 -6 -31 -9 -77 -14 -271 -103 -379 -174 -102 -66 -234 -184 -320 -287
-171 -205 -290 -509 -306 -783 -3 -53 -7 -194 -9 -312 -3 -223 -5 -251 -28
-335 -8 -27 -16 -57 -18 -65 -10 -39 -100 -203 -135 -246 -137 -172 -321 -286
-531 -331 -104 -22 -857 -25 -968 -3 -96 18 -196 53 -274 96 -87 48 -111 66
-195 149 -132 130 -211 277 -253 470 -3 17 -8 154 -9 305 -5 340 -15 429 -70
605 -17 56 -19 60 -68 168 -181 398 -580 699 -1031 777 -99 17 -323 19 -430 3z"/>
<path d="M9597 5794 c-1 -1 -46 -4 -99 -8 -53 -3 -103 -8 -110 -11 -7 -2 -29
-6 -48 -9 -52 -8 -203 -53 -271 -81 -275 -116 -514 -324 -662 -577 -95 -162
-157 -337 -183 -518 -10 -69 -11 -310 -2 -370 4 -25 10 -61 13 -81 8 -56 53
-205 85 -284 188 -451 626 -784 1110 -843 73 -8 269 -8 350 1 390 43 782 289
997 626 154 241 226 499 218 786 -4 145 -5 162 -31 283 -32 151 -131 380 -206
477 -155 200 -237 280 -392 380 -205 133 -422 205 -673 224 -52 3 -95 6 -96 5z"/>
</g>
</svg>
