<svg xmlns="http://www.w3.org/2000/svg" viewBox="0 0 224.49 115"><g id="Lager_2" data-name="Lager 2"><g id="Lager_1-2" data-name="Lager 1"><path d="M56.62,63a4,4,0,0,0-1.94,1.69,5,5,0,0,0-.49,2.22,3.78,3.78,0,0,0,1.4,2.83A5,5,0,0,0,59.12,71a8.24,8.24,0,0,0,6-2.18,7.46,7.46,0,0,0,2.26-5.63V61.54a48.45,48.45,0,0,0-6.74.37A13.81,13.81,0,0,0,56.62,63Z" fill="#fff"/><path d="M179.58,48.8a9,9,0,0,0-6.74,2.79,10.28,10.28,0,0,0-2.72,7.48,10.28,10.28,0,0,0,2.72,7.48,9.52,9.52,0,0,0,13.47,0A10.28,10.28,0,0,0,189,59.07a10.28,10.28,0,0,0-2.72-7.48A9,9,0,0,0,179.58,48.8Z" fill="#fff"/><path d="M100.21,48.8a9,9,0,0,0-6.74,2.79,10.33,10.33,0,0,0-2.71,7.48,10.32,10.32,0,0,0,2.71,7.48,9.54,9.54,0,0,0,13.48,0,10.27,10.27,0,0,0,2.71-7.48A10.29,10.29,0,0,0,107,51.59,9,9,0,0,0,100.21,48.8Z" fill="#fff"/><path d="M0,0V115H224.49V0ZM146.52,40.37H156v37.8h-9.45Zm-103-5.54-.65-.17-.74-.16a5.3,5.3,0,0,0-1.07-.08,4.94,4.94,0,0,0-5.34,5.34v4.11h7.8c-.28.45-.55.91-.8,1.39a19.63,19.63,0,0,0-2,6.62l-.08.62H35.76V78H26.3V39.35a15.61,15.61,0,0,1,.95-5.55,12.93,12.93,0,0,1,2.63-4.31,11,11,0,0,1,4-2.76A13.57,13.57,0,0,1,39,25.79a12,12,0,0,1,1.73.12,15,15,0,0,1,1.48.29l1.31.41ZM76.79,78h-7l-1.65-3.7a18,18,0,0,1-2.87,2.06,16.33,16.33,0,0,1-3.37,1.44,14.94,14.94,0,0,1-4.44.61q-6.16,0-9.45-3a9.94,9.94,0,0,1-3.29-7.68,11.89,11.89,0,0,1,1.11-5.14,9.78,9.78,0,0,1,3.74-4,21.24,21.24,0,0,1,6.94-2.63A51.69,51.69,0,0,1,67.34,55a6.67,6.67,0,0,0-1.68-4.85A6.89,6.89,0,0,0,58.18,49a7.54,7.54,0,0,0-1.77,1.4,4.93,4.93,0,0,0-1,2.06H46a14.6,14.6,0,0,1,1.52-4.93,13.1,13.1,0,0,1,3.25-4,15.9,15.9,0,0,1,4.89-2.75,18.47,18.47,0,0,1,6.37-1,15.52,15.52,0,0,1,5.92,1.11,13.87,13.87,0,0,1,7.76,7.76,15.48,15.48,0,0,1,1.11,5.92ZM117.68,66.8a19.82,19.82,0,0,1-3.87,6.12,17.42,17.42,0,0,1-5.63,4,16.37,16.37,0,0,1-6.73,1.43A14.85,14.85,0,0,1,97,77.77a15.87,15.87,0,0,1-3.37-1.44,13.92,13.92,0,0,1-2.88-2.06L89.12,78h-7V26.2h9.45V43.46a16.23,16.23,0,0,1,2.63-1.81,28.5,28.5,0,0,1,3.08-1.28,12.71,12.71,0,0,1,4.16-.61,16.22,16.22,0,0,1,6.73,1.44,17.39,17.39,0,0,1,5.63,4,19.75,19.75,0,0,1,3.87,6.13,21.58,21.58,0,0,1,0,15.45Zm23.95-17.7a8.79,8.79,0,0,0-1.38-.1,7.46,7.46,0,0,0-5.63,2.26,8.21,8.21,0,0,0-2.18,6v21H123V40.37h7l1.64,3.7a14.16,14.16,0,0,1,10-3.7Zm13.56,43.49a5.15,5.15,0,1,1,1.61-3.74A5.12,5.12,0,0,1,155.19,92.59Zm42.47-.65H188.2V74.69a15.37,15.37,0,0,1-2.63,1.8,25.21,25.21,0,0,1-3.08,1.28,12.6,12.6,0,0,1-4.15.61A16.45,16.45,0,0,1,171.6,77a17.64,17.64,0,0,1-5.63-4,20,20,0,0,1-3.86-6.12,21.44,21.44,0,0,1,0-15.45A19.91,19.91,0,0,1,166,45.22a17.46,17.46,0,0,1,5.63-4,16.3,16.3,0,0,1,6.74-1.44,14.85,14.85,0,0,1,4.44.61,16.4,16.4,0,0,1,3.37,1.44A14.2,14.2,0,0,1,189,43.87l1.64-3.7h7Z" fill="#fff"/></g></g></svg>