<svg width="459" height="86" viewBox="0 0 459 86" fill="none" xmlns="http://www.w3.org/2000/svg">
<path d="M274.7 68.1C280.9 68.1 284.6 66.3 286.7 64.6V82.9C286.7 84.5 288 85.7 289.5 85.7C291.1 85.7 292.3 84.4 292.3 82.9V31C292.3 27.5 289.9 24.4 286.4 23.6C282.4 22.6 278 22.1 274.6 22.1C261.1 22.1 254.8 27.1 254.8 45C254.9 62.7 261.2 68.1 274.7 68.1ZM274.7 27.3C277.6 27.3 280.5 27.6 283.2 28.1C285.3 28.5 286.8 30.4 286.8 32.5V56.5C286.8 60.5 281.3 62.6 274.8 62.6C264.6 62.6 261.2 59.1 261.2 44.9C261.2 30.2 264.5 27.3 274.7 27.3Z" fill="#F2EEE8"/>
<path d="M247.4 22.9C245.8 22.9 244.6 24.2 244.6 25.7V63.8C244.6 65.4 245.9 66.6 247.4 66.6C249 66.6 250.2 65.3 250.2 63.8V25.7C250.2 24.2 248.9 22.9 247.4 22.9Z" fill="#F2EEE8"/>
<path d="M122.5 9.60004C124.3 9.60004 126.6 9.80004 128.7 10.2C130 10.4 131.3 9.70002 131.6 8.40002C132 7.00002 131.1 5.40004 129.7 5.10004C127.4 4.60004 124.9 4.40002 122.5 4.40002C115.3 4.40002 108.3 6.10002 108.3 18.9V23H103.2C101.8 23 100.6 24.2 100.6 25.6C100.6 27 101.8 28.2 103.2 28.2H108.3V63.9C108.3 65.5 109.6 66.7 111.1 66.7C112.7 66.7 113.9 65.4 113.9 63.9V28.2H126.9C128.3 28.2 129.5 27 129.5 25.6C129.5 24.2 128.3 23 126.9 23H113.9V18.9C113.9 10.3 118.4 9.60004 122.5 9.60004Z" fill="#F2EEE8"/>
<path d="M148.1 20.5C143 20.5 138.4 21.4 135 22.3C134.2 22.5 133.7 23.3 134.1 24.4L134.5 25.7C134.9 26.9 136.1 27.5 137.3 27.2C140.5 26.3 144.4 25.9 147.7 25.9C157.5 25.9 160.4 28 160.6 37.9C160.6 38.4 160.1 38.8 159.7 38.7C155.7 37.9 152.4 37.5 148.2 37.5C138.4 37.5 130.9 39.5 130.9 52C130.9 63.3 136.1 66.7 148.6 66.7C152.2 66.7 156.6 66.2 160.5 65.2C163.9 64.4 166.3 61.3 166.3 57.8V37.6C166.2 24.2 160.8 20.5 148.1 20.5ZM160.6 56.3C160.6 58.3 159.2 60.1 157.2 60.6C154.6 61.2 151.7 61.6 148.8 61.6C139.6 61.6 137.1 60.3 137.1 51.6C137.1 43.6 140 42.6 148.8 42.6C152.3 42.6 155.7 42.8 158.6 43.3C159.7 43.5 160.5 44.5 160.5 45.6V56.3H160.6Z" fill="#F2EEE8"/>
<path d="M191.1 20.5C184.9 20.5 181.2 22.3 179.1 24V5.70004C179.1 4.10004 177.8 2.90002 176.3 2.90002C174.7 2.90002 173.5 4.20004 173.5 5.70004V57.6C173.5 61.1 175.9 64.2 179.4 65C183.4 66 187.8 66.5 191.2 66.5C204.7 66.5 211 61.5 211 43.6C210.9 25.9 204.7 20.5 191.1 20.5ZM191.1 61.3C188.2 61.3 185.3 61 182.6 60.5C180.5 60.1 179 58.2 179 56.1V32.1C179 28.1 184.5 26 191 26C201.2 26 204.6 29.5 204.6 43.7C204.7 58.4 201.3 61.3 191.1 61.3Z" fill="#F2EEE8"/>
<path d="M238.2 23.3C231.3 21.2 219.5 20.5 216.5 28.8C216.1 29.8 215.9 31 215.9 32.2V63.9C215.9 65.4 217.1 66.7 218.7 66.7C220.3 66.7 221.5 65.5 221.5 63.9V33.3C221.5 30.2 223.8 27.7 226.8 27.3C227.2 27.2 227.6 27.2 228.1 27.2C230.8 27.3 233.4 27.7 236 28.4C237.6 28.8 238.5 28.2 238.9 27.8C239.1 27.5 239.2 27.3 239.2 27.3C239.2 27.3 239.2 27.3 239.7 25.7C240.2 24 239.1 23.6 238.2 23.3Z" fill="#F2EEE8"/>
<path d="M357.7 68.2C356.2 68.2 354.9 67 354.9 65.4V33.7C354.9 29.1 358.2 25.1 362.7 24.2C366.1 23.5 369.5 23.1 372.4 23.1C384.9 23.1 389.5 27.4 389.5 43.1V65.3C389.5 66.8 388.3 68.1 386.7 68.1C385.1 68.1 383.9 66.9 383.9 65.3V44.2C383.9 31.1 381.2 28.4 371.4 28.4C369.4 28.4 367.6 28.5 365.9 28.7C362.9 29.1 360.6 31.6 360.6 34.7V65.3C360.5 67 359.2 68.2 357.7 68.2Z" fill="#F2EEE8"/>
<path d="M386.6 68.2C385.1 68.2 383.8 67 383.8 65.4V33.7C383.8 29.1 387.1 25.1 391.6 24.2C395 23.5 398.4 23.1 401.3 23.1C413.8 23.1 418.4 27.4 418.4 43.1V65.3C418.4 66.8 417.2 68.1 415.6 68.1C414 68.1 412.8 66.9 412.8 65.3V44.2C412.8 31.1 410.1 28.4 400.3 28.4C398.3 28.4 396.5 28.5 394.8 28.7C391.8 29.1 389.5 31.6 389.5 34.7V65.3C389.4 67 388.2 68.2 386.6 68.2Z" fill="#F2EEE8"/>
<path d="M346.8 62.7C346.8 62.7 346.2 61 343.6 61.6C340.3 62.4 336.9 62.8 333.5 62.8C330.1 62.8 327 62.7 324.2 61C321.4 59.3 320.7 54.2 320.7 52.7C320.7 52.1 320.7 37.9 320.7 37.3C320.7 35.7 321.3 30.7 324.2 29C327.1 27.3 330.1 27.2 333.5 27.2C336.9 27.2 340.3 27.6 343.6 28.4C346.2 29 346.8 27.3 346.8 27.3C346.8 27.3 346.8 27.3 347.3 25.7C347.8 24 346.7 23.7 345.8 23.4C340.1 21.7 334.6 21.7 333.4 21.7C332.2 21.7 324 21.3 319.4 25C314.8 28.7 314.8 36.5 314.8 38.7C314.8 39.4 314.8 50.3 314.8 51C314.8 53.2 314.8 61 319.4 64.7C324 68.4 332.2 68 333.4 68C334.6 68 340.1 68 345.8 66.3C346.7 66 347.8 65.7 347.3 64C346.8 62.7 346.8 62.7 346.8 62.7Z" fill="#F2EEE8"/>
<path d="M458.4 51.1C457.1 44.7 451.9 42.1 445.7 41.7C441.6 41.4 434.9 43.1 431.6 40.2C429 38 430 30.6 432.7 29C435.5 27.3 438.6 27.2 442.1 27.2C445.5 27.2 448.9 27.6 452.2 28.4C454.8 29 455.4 27.3 455.4 27.3C455.4 27.3 455.4 27.3 455.9 25.7C456.4 24 455.3 23.7 454.4 23.4C448.7 21.7 443.2 21.7 442 21.7C437.7 21.7 432.9 21.8 429.1 24.2C424.6 27.1 423.4 32.6 424.1 37.6C424.9 42.9 429.1 46 434.1 47C437 47.5 439.9 47.4 442.8 47.5C445.3 47.6 448.6 47.4 450.6 49.2C453.3 51.5 452.5 57.2 450.5 59.8C448.1 62.8 443.6 62.8 440.1 62.8C436.7 62.8 433.3 62.4 430 61.6C427.4 61 426.8 62.7 426.8 62.7C426.8 62.7 426.8 62.7 426.3 64.3C425.8 66 426.9 66.3 427.8 66.6C433.5 68.3 439 68.3 440.2 68.3C444.6 68.3 449.6 68.1 453.4 65.6C458 62.4 459.4 56.3 458.4 51.1Z" fill="#F2EEE8"/>
<path d="M58.5 46.2001C51.7 46.2001 46.2 51.7001 46.2 58.5001C46.2 65.3001 51.7 70.8 58.5 70.8C65.3 70.8 70.8 65.3001 70.8 58.5001C70.8 51.7001 65.3 46.2001 58.5 46.2001Z" fill="#BC9B65"/>
<path d="M47.8 35.5001C47.8 35.5001 47.8 33.7001 47.8 32.7001C47.8 28.4001 51.3 24.9001 55.6 24.9001C56.6 24.9001 58.4 24.9001 58.4 24.9001C65.2 24.9001 70.7 19.4001 70.7 12.6001C70.7 5.80007 65.2 0.300049 58.4 0.300049C51.6 0.300049 46.1 5.80007 46.1 12.6001C46.1 12.6001 46.1 14.4001 46.1 15.4001C46.1 19.7001 42.6 23.2001 38.3 23.2001C37.3 23.2001 33.5 23.2001 32.6 23.2001C28.3 23.2001 24.8 19.7001 24.8 15.4001C24.8 14.6001 24.8 13.3 24.8 12.8C24.8 12.7 24.8 12.7001 24.8 12.6001C24.8 5.80007 19.3 0.300049 12.5 0.300049C5.7 0.300049 0.200012 5.80007 0.200012 12.6001C0.200012 19.4001 5.7 24.9001 12.5 24.9001C12.5 24.9001 12.5 24.9001 12.6 24.9001C13 24.9001 14.5 24.9001 15.3 24.9001C19.6 24.9001 23.1 28.4001 23.1 32.7001C23.1 33.6001 23.1 37.5001 23.1 38.4001C23.1 42.7001 19.6 46.2001 15.3 46.2001C14.3 46.2001 12.5 46.2001 12.5 46.2001C5.7 46.2001 0.200012 51.7001 0.200012 58.5001C0.200012 65.3001 5.7 70.8 12.5 70.8C19.3 70.8 24.8 65.3001 24.8 58.5001C24.8 58.5001 24.8 56.7001 24.8 55.7001C24.8 51.4001 28.3 47.9001 32.6 47.9001C33.6 47.9001 35.4 47.9001 35.4 47.9001C42.3 47.8001 47.8 42.3001 47.8 35.5001Z" fill="#BC9B65"/>
</svg>
